<svg xmlns="http://www.w3.org/2000/svg" viewBox="0 0 64 64" role="img" aria-label="DPI favicon">
  <defs>
    <linearGradient id="bg" x1="0" y1="0" x2="1" y2="1">
      <stop offset="0%" stop-color="#f0bf92"/>
      <stop offset="100%" stop-color="#8bb4dd"/>
    </linearGradient>
    <linearGradient id="line" x1="0" y1="0" x2="1" y2="0">
      <stop offset="0%" stop-color="#f08a4b"/>
      <stop offset="100%" stop-color="#3f8efc"/>
    </linearGradient>
  </defs>
  <rect width="64" height="64" rx="14" fill="url(#bg)"/>
  <rect x="10" y="10" width="44" height="44" rx="10" fill="#f7fbff" fill-opacity="0.88" stroke="#234567" stroke-opacity="0.22"/>
  <path d="M20 43V21h8.5q5 0 7.8 2.8Q39 26.5 39 31.8q0 5.5-2.8 8.4Q33.4 43 28.8 43H20zm5-4h3.2q2.8 0 4.3-1.8Q34 35.4 34 32t-1.5-5.2Q31 25 28.2 25H25v14z" fill="#12395f"/>
  <rect x="41" y="20" width="3" height="24" rx="1.5" fill="#12395f"/>
  <rect x="16" y="47" width="32" height="3" rx="1.5" fill="url(#line)"/>
</svg>
